<?xml version="1.0" encoding="UTF-8"?>
<svg xmlns="http://www.w3.org/2000/svg" width="1200" height="560" viewBox="0 0 1200 560" role="img" aria-labelledby="title description">
<title id="title">dsh-tui post-warm-up memory detail</title><desc id="description">Last 60 minutes; TUI RSS +0.28 MiB/min (R² 0.11); tree RSS +0.12 MiB/min (R² 0.02)</desc>
<style>.title{font:600 24px 'Segoe UI',sans-serif;fill:#1f2328}.subtitle{font:14px 'Segoe UI',sans-serif;fill:#57606a}.axis{font:13px 'Segoe UI',sans-serif;fill:#57606a}.label{font:600 13px 'Segoe UI',sans-serif;fill:#24292f}.annotation{font:600 13px 'Segoe UI',sans-serif;fill:#b4232f}.grid{stroke:#d8dee4;stroke-width:1}.plot{fill:#fff;stroke:#8c959f;stroke-width:1}.series{fill:none;stroke-width:2.6;stroke-linejoin:round;stroke-linecap:round}</style>
<rect width="1200" height="560" fill="#f6f8fa"/><text x="82" y="36" class="title">dsh-tui post-warm-up memory detail</text><text x="82" y="61" class="subtitle">Last 60 minutes; TUI RSS +0.28 MiB/min (R² 0.11); tree RSS +0.12 MiB/min (R² 0.02)</text><rect x="82" y="86" width="1088" height="404" class="plot"/>
<line x1="82" y1="490" x2="1170" y2="490" class="grid"/><text x="70" y="495" text-anchor="end" class="axis">350</text>
<line x1="82" y1="409.20000000000005" x2="1170" y2="409.20000000000005" class="grid"/><text x="70" y="414.20000000000005" text-anchor="end" class="axis">450</text>
<line x1="82" y1="328.4" x2="1170" y2="328.4" class="grid"/><text x="70" y="333.4" text-anchor="end" class="axis">550</text>
<line x1="82" y1="247.60000000000002" x2="1170" y2="247.60000000000002" class="grid"/><text x="70" y="252.60000000000002" text-anchor="end" class="axis">650</text>
<line x1="82" y1="166.79999999999998" x2="1170" y2="166.79999999999998" class="grid"/><text x="70" y="171.79999999999998" text-anchor="end" class="axis">750</text>
<line x1="82" y1="86" x2="1170" y2="86" class="grid"/><text x="70" y="91" text-anchor="end" class="axis">850</text>
<line x1="82" y1="86" x2="82" y2="490" class="grid"/><text x="82" y="518" text-anchor="middle" class="axis">60</text>
<line x1="263.3333333333333" y1="86" x2="263.3333333333333" y2="490" class="grid"/><text x="263.3333333333333" y="518" text-anchor="middle" class="axis">70</text>
<line x1="444.66666666666663" y1="86" x2="444.66666666666663" y2="490" class="grid"/><text x="444.66666666666663" y="518" text-anchor="middle" class="axis">80</text>
<line x1="626" y1="86" x2="626" y2="490" class="grid"/><text x="626" y="518" text-anchor="middle" class="axis">90</text>
<line x1="807.3333333333333" y1="86" x2="807.3333333333333" y2="490" class="grid"/><text x="807.3333333333333" y="518" text-anchor="middle" class="axis">100</text>
<line x1="988.6666666666667" y1="86" x2="988.6666666666667" y2="490" class="grid"/><text x="988.6666666666667" y="518" text-anchor="middle" class="axis">110</text>
<line x1="1170" y1="86" x2="1170" y2="490" class="grid"/><text x="1170" y="518" text-anchor="middle" class="axis">120</text>
<polygon points="127.3,167.1 218.0,360.6 308.7,368.8 399.3,344.0 490.0,369.8 580.7,353.0 671.3,357.4 762.0,371.7 852.7,354.5 943.3,350.9 1034.0,361.9 1124.7,356.3 1124.7,404.1 1034.0,404.3 943.3,404.5 852.7,404.6 762.0,410.5 671.3,407.2 580.7,409.2 490.0,404.1 399.3,407.7 308.7,408.9 218.0,420.4 127.3,450.1" fill="#0969da" opacity="0.10"/><path d="M127.3,220.8 L218.0,211.5 L308.7,204.3 L399.3,203.3 L490.0,200.7 L580.7,200.4 L671.3,196.7 L762.0,194.5 L852.7,203.8 L943.3,209.0 L1034.0,208.3 L1124.7,207.7" class="series" stroke="#bf8700"/><path d="M127.3,376.3 L218.0,368.1 L308.7,361.6 L399.3,362.5 L490.0,360.4 L580.7,357.4 L671.3,352.4 L762.0,347.8 L852.7,344.6 L943.3,343.8 L1034.0,343.6 L1124.7,342.0" class="series" stroke="#8250df"/><path d="M127.3,406.0 L218.0,398.1 L308.7,391.9 L399.3,392.1 L490.0,390.3 L580.7,390.0 L671.3,392.6 L762.0,389.0 L852.7,388.6 L943.3,388.9 L1034.0,388.2 L1124.7,387.2" class="series" stroke="#0969da"/>

<text x="24" y="72" class="label">MiB</text><text x="626" y="542" text-anchor="middle" class="label">Task minute (five-minute blocks)</text>
<line x1="795" y1="38" x2="830" y2="38" class="series" stroke="#0969da"/><text x="838" y="43" class="axis">TUI RSS median/range</text><line x1="970" y1="38" x2="1005" y2="38" class="series" stroke="#8250df"/><text x="1013" y="43" class="axis">TUI private</text><line x1="1105" y1="38" x2="1140" y2="38" class="series" stroke="#bf8700"/><text x="1148" y="43" class="axis">Tree RSS</text>
</svg>
